:SAMPLES-PER-SECOND 30
:FULLY-SPECIFIED
:DEGREES
109
root  -2.532822316 37.26155439 -1.09034664 -4.646972656 -34.75500488 -2.202026367
lowerback  12.13500023 0.04498450086 -7.817100048
upperback  6.654290199 -0.8771039844 -1.275500059
thorax  0.3053070009 -0.6745020151 3.162019968
lowerneck  11.25990009 0.7444490194 -10.5461998
upperneck  13.20800018 -1.348369956 13.7901001
head  2.151750088 -1.037449956 6.053760052
lclavicle  0 -9.442270133e-015 7.951389973e-016
lhumerus  22.13769913 -23.41710091 82.85199738
lradius  1.627648666e-031 -3.133624715e-031 117.447998
lwrist  -1.412450015e-030 1.765562519e-031 21.00300026
lhand  -1.496451383e-031 -27.76390076 20.11240005
lfingers  90 7.125020027 -90
lthumb  89.89689403 5.08795885 91.16245106
rclavicle  0 -9.442270133e-015 7.951389973e-016
rhumerus  23.59939957 6.150440216 -75.71279907
rradius  -2.435043897e-031 2.557226087e-031 133.5980072
rwrist  7.062250077e-031 -0 -2.444509983
rhand  -7.920061211e-032 -33.2840004 9.303460121
rfingers  -90 -7.125020027 -90
rthumb  -92.93752616 -24.25625642 -97.11982154
rfemur  -30.96439934 19.90040016 0.8123850226
rtibia  -0 0 54.95040131
rfoot  -5.069159552e-032 -11.59879971 0.4761410058
rtoes  5.373923086 19.29304026 -105.8922705
lfemur  -11.51710033 -4.226250172 -5.438220024
ltibia  -0 0 67.2983017
lfoot  5.205038541e-032 -17.44459915 -0.5663980246
ltoes  -4.250644065 -19.5611806 -102.515957
110
root  -2.326733296 37.52155454 -0.9932622196 -5.047973633 -37.47999573 -1.804992676
lowerback  11.84370041 0.1177340001 -7.226850033
upperback  6.687290192 -0.7059260011 -1.574010015
thorax  0.4570400119 -0.5780739784 2.497090101
lowerneck  10.48740005 1.269099951 -10.24510002
upperneck  14.1718998 -0.5675269961 12.79489994
head  2.477999926 -0.6296650171 5.678649902
lclavicle  0 -9.442270133e-015 7.951389973e-016
lhumerus  20.31270027 -22.23970032 82.5904007
lradius  1.646815223e-031 -3.123594669e-031 117.7990036
lwrist  -7.062250077e-031 1.765562519e-031 19.80750084
lhand  -1.496451383e-031 -27.76390076 20.11240005
lfingers  90 7.125020027 -90
lthumb  89.89689403 5.08795885 91.16245106
rclavicle  0 -9.442270133e-015 7.951389973e-016
rhumerus  22.96529961 8.935709953 -76.80000305
rradius  -2.399056407e-031 2.591017637e-031 132.7969971
rwrist  1.059337512e-030 -3.531125038e-031 -2.405950069
rhand  -7.920061211e-032 -33.2840004 9.303460121
rfingers  -90 -7.125020027 -90
rthumb  -92.93752616 -24.25625642 -97.11982154
rfemur  -30.55489922 19.96789932 0.5029649734
rtibia  -0 0 52.37110138
rfoot  -4.48487295e-032 -10.20619965 1.866719961
rtoes  5.373923086 19.29304026 -105.8922705
lfemur  -11.0376997 -3.496010065 -6.033100128
ltibia  -0 0 67.4382019
lfoot  5.698767622e-032 -14.4946003 -1.220710039
ltoes  -4.250644065 -19.5611806 -102.515957
111
root  -2.113111188 37.79911131 -0.8849644285 -5.361999512 -40.39399719 -1.33001709
lowerback  11.85659981 0.07900670171 -7.626440048
upperback  6.310780048 -0.8078359962 -0.953338027
thorax  0.08441460133 -0.6266800165 3.385210037
lowerneck  9.728750229 2.218169928 -11.47649956
upperneck  15.47729969 0.6928660274 11.47000027
head  2.867599964 -0.08750870079 5.471260071
lclavicle  0 -9.442270133e-015 7.951389973e-016
lhumerus  17.61160088 -19.75419998 83.74690247
lradius  1.672219425e-031 -3.110068525e-031 118.2659988
lwrist  -7.062250077e-031 -8.827812596e-032 18.16480064
lhand  -1.496451383e-031 -27.76390076 20.11240005
lfingers  90 7.125020027 -90
lthumb  89.89689403 5.08795885 91.16245106
rclavicle  0 -9.442270133e-015 7.951389973e-016
rhumerus  22.5053997 12.96030045 -76.74169922
rradius  -2.359117465e-031 2.627433885e-031 131.9199982
rwrist  7.062250077e-031 -0 -3.069250107
rhand  -7.920061211e-032 -33.2840004 9.303460121
rfingers  -90 -7.125020027 -90
rthumb  -92.93752616 -24.25625642 -97.11982154
rfemur  -30.42830086 19.67560005 0.1257890016
rtibia  -0 0 49.70479965
rfoot  -4.459994062e-032 -8.244000435 3.683020115
rtoes  5.373923086 19.29304026 -105.8922705
lfemur  -10.68150043 -2.697550058 -6.643109798
ltibia  -0 0 67.37729645
lfoot  6.749753201e-032 -11.21510029 -2.241770029
ltoes  -4.250644065 -19.5611806 -102.515957
112
root  -1.890093323 38.08199965 -0.7821622327 -5.659973145 -43.34599304 -0.7529907227
lowerback  11.34659958 0.04391910136 -7.480989933
upperback  6.216360092 -0.7962440252 -0.6603360176
thorax  0.2608090043 -0.6267799735 3.60281992
lowerneck  9.003040314 3.104850054 -12.63249969
upperneck  16.39920044 1.913429976 10.54450035
head  3.138530016 0.4256489873 5.379419804
lclavicle  0 -9.442270133e-015 7.951389973e-016
lhumerus  15.56140041 -17.56069946 84.42140198
lradius  1.699079893e-031 -3.095475982e-031 118.762001
lwrist  -7.062250077e-031 8.827812596e-032 17.07979965
lhand  -1.496451383e-031 -27.76390076 20.11240005
lfingers  90 7.125020027 -90
lthumb  89.89689403 5.08795885 91.16245106
rclavicle  0 -9.442270133e-015 7.951389973e-016
rhumerus  22.26429939 16.33399963 -76.78970337
rradius  -2.325729315e-031 2.657033532e-031 131.1959991
rwrist  7.062250077e-031 -1.765562519e-031 -4.248010159
rhand  -7.920061211e-032 -33.2840004 9.303460121
rfingers  -90 -7.125020027 -90
rthumb  -92.93752616 -24.25625642 -97.11982154
rfemur  -30.53660011 19.06110001 -0.2810719907
rtibia  -0 0 47.0428009
rfoot  -4.436895885e-032 -5.835140228 5.65170002
rtoes  5.373923086 19.29304026 -105.8922705
lfemur  -10.48579979 -1.912960052 -7.286260128
ltibia  -0 0 67.13020325
lfoot  8.908929339e-032 -7.737669945 -3.266370058
ltoes  -4.250644065 -19.5611806 -102.515957
113
root  -1.658533314 38.35244367 -0.6885466613 -5.987976074 -46.24000549 -0.0830078125
lowerback  11.09370041 0.9828259945 -6.550280094
upperback  6.185919762 0.5361779928 -1.31103003
thorax  0.2116239965 0.07074309886 2.258670092
lowerneck  8.360449791 2.594219923 -10.01879978
upperneck  17.10860062 1.533310056 9.27737999
head  3.546169996 0.3523570001 4.556709766
lclavicle  0 -9.442270133e-015 7.951389973e-016
lhumerus  14.5642004 -18.77300072 84.14559937
lradius  1.7184419e-031 -3.084769274e-031 119.1210022
lwrist  -1.412450015e-030 -0 16.48130035
lhand  -1.496451383e-031 -27.76390076 20.11240005
lfingers  90 7.125020027 -90
lthumb  89.89689403 5.08795885 91.16245106
rclavicle  0 -9.442270133e-015 7.951389973e-016
rhumerus  21.05080032 16.27479935 -77.46690369
rradius  -2.288451756e-031 2.689206685e-031 130.3970032
rwrist  7.062250077e-031 -1.765562519e-031 -4.284639835
rhand  -7.920061211e-032 -33.2840004 9.303460121
rfingers  -90 -7.125020027 -90
rthumb  -92.93752616 -24.25625642 -97.11982154
rfemur  -30.82010078 18.0503006 -0.6192029715
rtibia  -0 0 44.53250122
rfoot  -0 -3.122060061 7.512209892
rtoes  5.373923086 19.29304026 -105.8922705
lfemur  -10.44900036 -1.091910005 -7.897699833
ltibia  -0 0 66.73500061
lfoot  8.850062716e-032 -4.063700199 -4.511730194
ltoes  -4.250644065 -19.5611806 -102.515957
114
root  -1.438044469 38.60511179 -0.5888177654 -6.218994141 -49.352005 0.3200073242
lowerback  10.85760021 1.584169984 -5.730080128
upperback  6.143970013 1.411990047 -1.643300056
thorax  0.2388920039 0.5301269889 1.362849951
lowerneck  7.531670094 2.564660072 -8.435350418
upperneck  17.7833004 1.733909965 8.096229553
head  3.905070066 0.5099679828 3.93569994
lclavicle  0 -9.442270133e-015 7.951389973e-016
lhumerus  13.4211998 -18.37479973 83.55000305
lradius  1.747920165e-031 -3.068162175e-031 119.6699982
lwrist  -7.062250077e-031 -0 16.03389931
lhand  -1.496451383e-031 -27.76390076 20.11240005
lfingers  90 7.125020027 -90
lthumb  89.89689403 5.08795885 91.16245106
rclavicle  0 -9.442270133e-015 7.951389973e-016
rhumerus  20.30470085 17.41939926 -77.97709656
rradius  -2.239216852e-031 2.73033916e-031 129.3560028
rwrist  1.059337512e-030 -1.765562519e-031 -3.336169958
rhand  -7.920061211e-032 -33.2840004 9.303460121
rfingers  -90 -7.125020027 -90
rthumb  -92.93752616 -24.25625642 -97.11982154
rfemur  -31.19610023 17.07019997 -0.5318470001
rtibia  -0 0 42.30310059
rfoot  -0 -0.4058940113 8.913470268
rtoes  5.373923086 19.29304026 -105.8922705
lfemur  -10.18309975 0.05947870016 -8.173119545
ltibia  -0 0 66.21900177
lfoot  4.414368981e-032 -0.8295620084 -6.256599903
ltoes  -4.250644065 -19.5611806 -102.515957
